<?xml version="1.0" encoding="utf-8"?>
<svg fill="#000000" width="800px" height="800px" viewBox="0 0 24 24" id="edit-user-2" data-name="Flat Color" xmlns="http://www.w3.org/2000/svg" class="icon flat-color">
<path id="secondary" d="M20.31,12.29l1.4,1.4a1,1,0,0,1,0,1.4L15.1,21.71a1.05,1.05,0,0,1-.71.29H13a1,1,0,0,1-1-1V19.61a1.05,1.05,0,0,1,.29-.71l6.62-6.61A1,1,0,0,1,20.31,12.29Z" style="fill: rgb(44, 169, 188);">
</path>
<path id="primary" d="M17,8a6,6,0,1,0-9.9,4.55A8,8,0,0,0,2,20a2,2,0,0,0,2,2h7V19.61a2,2,0,0,1,.59-1.41l4.84-4.85a8.28,8.28,0,0,0-1.54-.79A6,6,0,0,0,17,8Z" style="fill: rgb(0, 0, 0);">
</path>
</svg>
